<?xml version="1.0" standalone="no"?>
<!DOCTYPE svg PUBLIC "-//W3C//DTD SVG 20010904//EN"
 "http://www.w3.org/TR/2001/REC-SVG-20010904/DTD/svg10.dtd">
<svg version="1.0" xmlns="http://www.w3.org/2000/svg"
 width="250.000000pt" height="250.000000pt" viewBox="0 0 250.000000 250.000000"
 preserveAspectRatio="xMidYMid meet">
<metadata>
Created by potrace 1.11, written by Peter Selinger 2001-2013
</metadata>
<g transform="translate(0.000000,250.000000) scale(0.100000,-0.100000)"
fill="#000000" stroke="none">
<path d="M1150 2041 c0 -12 -73 -141 -80 -141 -3 0 -18 24 -35 52 -34 59 -51
69 -60 36 -4 -13 -23 -69 -42 -124 l-35 -102 -55 29 c-30 16 -65 29 -77 29
-12 0 -46 7 -76 15 -30 9 -84 24 -120 34 -60 16 -64 19 -65 45 0 21 -7 31 -25
38 -35 13 -117 1 -149 -21 -19 -14 -40 -18 -81 -16 -53 3 -122 -15 -119 -32 5
-29 -4 -33 -66 -33 l-65 0 0 -79 0 -79 45 -11 c36 -9 45 -16 46 -34 0 -12 2
-31 4 -42 21 -114 22 -360 1 -441 -8 -32 -18 -120 -21 -194 -4 -74 -8 -137
-10 -141 -3 -3 -18 -9 -35 -12 -30 -6 -30 -7 -30 -77 l0 -70 63 0 c68 0 86
-11 116 -72 17 -34 88 -108 103 -108 7 0 22 -10 35 -22 20 -18 26 -20 33 -9 4
8 6 19 4 26 -5 12 143 73 254 104 66 18 68 18 91 0 13 -11 31 -19 42 -19 10 0
22 -6 26 -12 4 -7 27 -30 51 -50 36 -32 48 -37 80 -34 71 7 126 53 139 115 4
20 8 39 9 44 1 4 2 11 3 16 0 4 29 30 64 57 34 26 89 74 122 106 l60 57 24
-47 c76 -149 182 -239 328 -277 63 -17 190 -18 238 -2 27 8 103 17 160 19 34
1 118 30 157 54 20 13 49 40 65 60 15 21 37 47 48 59 35 37 70 121 81 190 4
31 16 55 36 75 18 19 26 34 22 42 -5 7 -9 76 -10 154 -2 154 -15 223 -63 328
l-30 66 57 37 c98 63 96 58 59 114 -18 27 -35 49 -39 49 -4 0 -33 -18 -64 -40
-32 -22 -62 -40 -68 -40 -7 0 -38 27 -71 60 -33 33 -63 60 -67 60 -5 0 -26 12
-47 26 -23 15 -61 28 -93 32 -71 9 -223 5 -262 -7 -17 -6 -51 -13 -76 -16 -25
-3 -53 -8 -62 -11 -9 -3 -25 -6 -35 -8 -34 -7 -217 -99 -274 -138 -31 -22 -71
-57 -88 -78 -39 -49 -82 -130 -75 -141 3 -5 2 -9 -3 -9 -4 0 -24 27 -44 59
l-36 58 37 79 c127 267 150 317 148 319 -2 1 -22 11 -45 22 -23 11 -40 23 -36
27 3 3 1 6 -5 6 -7 0 -12 -4 -12 -9z m832 -623 c5 -75 4 -288 -1 -296 -4 -6
-20 -13 -37 -16 l-30 -6 18 71 c18 74 26 131 27 217 1 50 19 75 23 30z m-1304
-2 c3 -4 6 -57 6 -119 l0 -112 -43 -75 c-24 -41 -57 -90 -74 -107 -29 -31 -35
-33 -99 -33 l-68 0 5 68 c3 37 7 109 8 160 2 91 3 95 32 119 70 58 132 101
151 105 26 5 74 1 82 -6z m508 -36 c6 -6 24 -12 41 -13 l31 -2 0 -110 c1 -60
3 -120 6 -132 3 -13 -6 -37 -22 -62 -34 -53 -56 -63 -36 -16 17 41 11 155 -10
206 -8 19 -17 54 -21 79 -4 25 -9 48 -11 52 -7 12 10 10 22 -2z m648 -37 c-6
-64 -20 -138 -37 -193 l-13 -45 -49 3 c-27 2 -64 10 -82 17 -31 13 -34 17 -31
56 1 31 11 51 40 84 35 39 151 125 170 125 4 0 5 -21 2 -47z"/>
</g>
</svg>
